<svg width="353" height="88" viewBox="0 0 353 88" fill="none" xmlns="http://www.w3.org/2000/svg">
<path d="M124.455 66.2593C121.43 66.2593 118.544 65.8413 115.797 65.0054C113.091 64.1696 110.921 63.0153 109.289 61.5425C108.533 60.9057 108.155 60.0897 108.155 59.0946C108.155 58.3782 108.354 57.7811 108.752 57.3035C109.15 56.786 109.628 56.5273 110.185 56.5273C110.742 56.5273 111.419 56.786 112.215 57.3035C115.758 59.9305 119.798 61.244 124.335 61.244C127.519 61.244 129.967 60.647 131.679 59.4529C133.391 58.2588 134.246 56.5472 134.246 54.3182C134.246 52.5668 133.45 51.2533 131.858 50.3777C130.266 49.502 127.719 48.6661 124.216 47.87C120.872 47.1536 118.126 46.3376 115.976 45.4221C113.827 44.5066 112.135 43.2727 110.902 41.7204C109.707 40.1282 109.11 38.1182 109.11 35.6902C109.11 33.2621 109.767 31.1128 111.081 29.242C112.434 27.3314 114.305 25.8587 116.693 24.8238C119.081 23.7491 121.808 23.2118 124.873 23.2118C127.699 23.2118 130.306 23.6098 132.694 24.4059C135.082 25.2019 137.112 26.3761 138.784 27.9285C139.58 28.6051 139.978 29.4211 139.978 30.3764C139.978 31.053 139.759 31.6501 139.321 32.1675C138.923 32.685 138.446 32.9437 137.888 32.9437C137.371 32.9437 136.714 32.685 135.918 32.1675C134.087 30.7744 132.356 29.7793 130.724 29.1823C129.132 28.5454 127.201 28.227 124.932 28.227C121.867 28.227 119.479 28.8639 117.768 30.1376C116.056 31.3715 115.2 33.1029 115.2 35.3319C115.2 37.2425 115.957 38.6953 117.469 39.6904C118.982 40.6457 121.41 41.5214 124.753 42.3174C128.256 43.1135 131.082 43.9494 133.231 44.8251C135.42 45.6609 137.152 46.8351 138.426 48.3477C139.739 49.8204 140.396 51.731 140.396 54.0794C140.396 56.4676 139.719 58.5971 138.366 60.4678C137.052 62.2988 135.182 63.7317 132.754 64.7666C130.365 65.7617 127.599 66.2593 124.455 66.2593ZM159.499 35.929C163.36 35.929 166.226 36.9042 168.096 38.8545C170.007 40.8049 170.962 43.7703 170.962 47.7506V63.2143C170.962 64.1298 170.704 64.8462 170.186 65.3637C169.669 65.8413 168.952 66.0801 168.037 66.0801C167.161 66.0801 166.464 65.8214 165.947 65.304C165.43 64.7865 165.171 64.09 165.171 63.2143V61.0052C164.415 62.6769 163.28 63.9706 161.768 64.886C160.295 65.7617 158.563 66.1996 156.573 66.1996C154.663 66.1996 152.911 65.8214 151.319 65.0652C149.727 64.2691 148.473 63.1745 147.558 61.7814C146.682 60.3882 146.244 58.8359 146.244 57.1244C146.244 55.0148 146.782 53.3629 147.856 52.1688C148.971 50.9349 150.782 50.0592 153.289 49.5418C155.837 49.0243 159.32 48.7656 163.738 48.7656H165.111V47.0342C165.111 44.8052 164.653 43.1931 163.738 42.198C162.822 41.2029 161.35 40.7054 159.32 40.7054C157.927 40.7054 156.613 40.8845 155.379 41.2427C154.145 41.601 152.792 42.1184 151.319 42.7951C150.245 43.3921 149.488 43.6907 149.05 43.6907C148.453 43.6907 147.956 43.4717 147.558 43.0339C147.2 42.5961 147.02 42.0388 147.02 41.3622C147.02 40.7651 147.18 40.2477 147.498 39.8098C147.856 39.3322 148.414 38.8744 149.17 38.4366C150.563 37.6803 152.195 37.0833 154.066 36.6454C155.936 36.1678 157.747 35.929 159.499 35.929ZM157.648 61.7217C159.837 61.7217 161.628 60.9853 163.021 59.5126C164.415 58 165.111 56.0696 165.111 53.7212V52.1688H164.036C160.932 52.1688 158.544 52.3081 156.872 52.5868C155.2 52.8654 154.006 53.343 153.289 54.0197C152.573 54.6565 152.215 55.5919 152.215 56.8258C152.215 58.2588 152.732 59.433 153.767 60.3484C154.802 61.2639 156.096 61.7217 157.648 61.7217ZM192.943 28.2867C190.953 28.4459 189.48 29.0828 188.525 30.1973C187.57 31.272 187.092 32.8641 187.092 34.9737V36.6454H193.003C193.839 36.6454 194.476 36.8644 194.913 37.3022C195.391 37.7002 195.63 38.2575 195.63 38.9739C195.63 39.6904 195.391 40.2676 194.913 40.7054C194.476 41.1034 193.839 41.3025 193.003 41.3025H187.092V63.1546C187.092 64.1099 186.793 64.8462 186.196 65.3637C185.639 65.8413 184.923 66.0801 184.047 66.0801C183.171 66.0801 182.455 65.8413 181.898 65.3637C181.34 64.8462 181.062 64.1099 181.062 63.1546V41.3025H177.479C176.644 41.3025 175.987 41.1034 175.509 40.7054C175.071 40.2676 174.852 39.6904 174.852 38.9739C174.852 38.2575 175.071 37.7002 175.509 37.3022C175.987 36.8644 176.644 36.6454 177.479 36.6454H181.062V35.8693C181.062 32.2073 181.997 29.3415 183.868 27.2717C185.739 25.1621 188.386 23.9879 191.809 23.7491L193.361 23.6297C194.635 23.5501 195.55 23.6894 196.107 24.0476C196.705 24.4059 197.003 24.983 197.003 25.7791C197.003 27.1722 196.167 27.9683 194.495 28.1673L192.943 28.2867ZM222.134 58.4379C222.691 58.4379 223.149 58.6568 223.507 59.0946C223.865 59.5325 224.044 60.0897 224.044 60.7664C224.044 61.9207 223.328 62.8959 221.895 63.6919C220.502 64.488 218.969 65.105 217.298 65.5428C215.666 65.9806 214.094 66.1996 212.581 66.1996C207.964 66.1996 204.322 64.8661 201.655 62.1993C198.988 59.4927 197.655 55.8108 197.655 51.1538C197.655 48.1686 198.232 45.5216 199.386 43.213C200.58 40.9044 202.232 39.1133 204.342 37.8395C206.491 36.5658 208.919 35.929 211.626 35.929C215.526 35.929 218.611 37.1828 220.88 39.6904C223.149 42.198 224.283 45.5813 224.283 49.8403C224.283 51.4324 223.567 52.2285 222.134 52.2285H203.685C204.083 58.3981 207.048 61.4828 212.581 61.4828C214.054 61.4828 215.327 61.2838 216.402 60.8858C217.477 60.4877 218.611 59.9703 219.805 59.3334C219.925 59.2538 220.243 59.0946 220.761 58.8558C221.318 58.5772 221.776 58.4379 222.134 58.4379ZM211.745 40.3472C209.437 40.3472 207.586 41.0835 206.193 42.5563C204.799 44.029 203.964 46.0988 203.685 48.7656H219.089C218.969 46.059 218.273 43.9892 216.999 42.5563C215.765 41.0835 214.014 40.3472 211.745 40.3472ZM234.69 66.0801C233.774 66.0801 233.038 65.8015 232.481 65.2443C231.923 64.6472 231.645 63.8909 231.645 62.9755V26.6747C231.645 25.7592 231.903 25.0427 232.421 24.5253C232.978 23.968 233.734 23.6894 234.69 23.6894H256.064C257.975 23.6894 258.93 24.5253 258.93 26.197C258.93 27.8688 257.975 28.7046 256.064 28.7046H237.735V41.8995H254.87C256.781 41.8995 257.736 42.7354 257.736 44.4071C257.736 46.0789 256.781 46.9147 254.87 46.9147H237.735V62.9755C237.735 63.9308 237.456 64.687 236.899 65.2443C236.381 65.8015 235.645 66.0801 234.69 66.0801ZM275.761 35.929C279.622 35.929 282.488 36.9042 284.358 38.8545C286.269 40.8049 287.224 43.7703 287.224 47.7506V63.2143C287.224 64.1298 286.966 64.8462 286.448 65.3637C285.931 65.8413 285.214 66.0801 284.299 66.0801C283.423 66.0801 282.726 65.8214 282.209 65.304C281.692 64.7865 281.433 64.09 281.433 63.2143V61.0052C280.677 62.6769 279.542 63.9706 278.03 64.886C276.557 65.7617 274.825 66.1996 272.835 66.1996C270.925 66.1996 269.173 65.8214 267.581 65.0652C265.989 64.2691 264.735 63.1745 263.82 61.7814C262.944 60.3882 262.506 58.8359 262.506 57.1244C262.506 55.0148 263.044 53.3629 264.118 52.1688C265.233 50.9349 267.044 50.0592 269.551 49.5418C272.099 49.0243 275.582 48.7656 280 48.7656H281.373V47.0342C281.373 44.8052 280.915 43.1931 280 42.198C279.084 41.2029 277.612 40.7054 275.582 40.7054C274.189 40.7054 272.875 40.8845 271.641 41.2427C270.407 41.601 269.054 42.1184 267.581 42.7951C266.507 43.3921 265.75 43.6907 265.312 43.6907C264.715 43.6907 264.218 43.4717 263.82 43.0339C263.462 42.5961 263.282 42.0388 263.282 41.3622C263.282 40.7651 263.442 40.2477 263.76 39.8098C264.118 39.3322 264.676 38.8744 265.432 38.4366C266.825 37.6803 268.457 37.0833 270.328 36.6454C272.198 36.1678 274.009 35.929 275.761 35.929ZM273.91 61.7217C276.099 61.7217 277.89 60.9853 279.283 59.5126C280.677 58 281.373 56.0696 281.373 53.7212V52.1688H280.298C277.194 52.1688 274.806 52.3081 273.134 52.5868C271.462 52.8654 270.268 53.343 269.551 54.0197C268.835 54.6565 268.477 55.5919 268.477 56.8258C268.477 58.2588 268.994 59.433 270.029 60.3484C271.064 61.2639 272.358 61.7217 273.91 61.7217ZM307.951 66.1996C305.125 66.1996 302.638 65.5826 300.488 64.3487C298.379 63.1148 296.727 61.3634 295.533 59.0946C294.378 56.8258 293.801 54.1988 293.801 51.2135C293.801 48.1885 294.398 45.5216 295.592 43.213C296.826 40.9044 298.538 39.1133 300.727 37.8395C302.916 36.5658 305.424 35.929 308.25 35.929C309.762 35.929 311.275 36.1479 312.787 36.5857C314.34 37.0236 315.713 37.6206 316.907 38.3769C318.181 39.2526 318.818 40.2676 318.818 41.4219C318.818 42.0985 318.639 42.6757 318.28 43.1533C317.922 43.5912 317.464 43.8101 316.907 43.8101C316.549 43.8101 316.191 43.7305 315.832 43.5713C315.474 43.3722 315.016 43.0936 314.459 42.7354C313.464 42.0985 312.529 41.6209 311.653 41.3025C310.817 40.9442 309.802 40.7651 308.608 40.7651C305.901 40.7651 303.792 41.6806 302.279 43.5115C300.807 45.3425 300.07 47.8899 300.07 51.1538C300.07 54.4177 300.807 56.9452 302.279 58.7364C303.752 60.4877 305.842 61.3634 308.548 61.3634C309.742 61.3634 310.797 61.1843 311.713 60.8261C312.628 60.4678 313.564 59.9902 314.519 59.3932C314.957 59.1145 315.395 58.8757 315.832 58.6767C316.27 58.4777 316.668 58.3782 317.027 58.3782C317.584 58.3782 318.042 58.617 318.4 59.0946C318.758 59.5325 318.937 60.0897 318.937 60.7664C318.937 61.3236 318.778 61.8411 318.459 62.3187C318.181 62.7565 317.683 63.2143 316.967 63.6919C315.773 64.488 314.38 65.105 312.787 65.5428C311.195 65.9806 309.583 66.1996 307.951 66.1996ZM347.142 58.4379C347.699 58.4379 348.157 58.6568 348.515 59.0946C348.873 59.5325 349.052 60.0897 349.052 60.7664C349.052 61.9207 348.336 62.8959 346.903 63.6919C345.51 64.488 343.977 65.105 342.306 65.5428C340.674 65.9806 339.101 66.1996 337.589 66.1996C332.972 66.1996 329.33 64.8661 326.663 62.1993C323.996 59.4927 322.663 55.8108 322.663 51.1538C322.663 48.1686 323.24 45.5216 324.394 43.213C325.588 40.9044 327.24 39.1133 329.35 37.8395C331.499 36.5658 333.927 35.929 336.634 35.929C340.534 35.929 343.619 37.1828 345.888 39.6904C348.157 42.198 349.291 45.5813 349.291 49.8403C349.291 51.4324 348.575 52.2285 347.142 52.2285H328.693C329.091 58.3981 332.056 61.4828 337.589 61.4828C339.062 61.4828 340.335 61.2838 341.41 60.8858C342.485 60.4877 343.619 59.9703 344.813 59.3334C344.933 59.2538 345.251 59.0946 345.769 58.8558C346.326 58.5772 346.784 58.4379 347.142 58.4379ZM336.753 40.3472C334.444 40.3472 332.594 41.0835 331.2 42.5563C329.807 44.029 328.971 46.0988 328.693 48.7656H344.097C343.977 46.059 343.281 43.9892 342.007 42.5563C340.773 41.0835 339.022 40.3472 336.753 40.3472Z" fill="#00BFFD"/>
<path d="M74.7794 33.8793V21.6895L48.443 6.36884C43.0595 3.23709 36.4006 3.20881 30.9903 6.29472L4 21.6895C4.17956 28.8532 4.87923 35.0203 6.09901 40.1908C7.3188 45.3613 9.36508 50.391 12.2379 55.28C24.3553 50.3341 33.5221 47.8896 39.7383 47.9466C45.9545 48.0035 55.6228 50.6204 68.7432 55.7974C64.361 62.2553 59.5762 67.6733 54.3885 72.0514C49.2009 76.4294 44.2013 80.1979 39.3897 83.3569L22.2383 71.1482" stroke="#00BFFD" stroke-width="6.41839" stroke-linecap="round"/>
<path d="M40.015 38.0762C45.0118 38.0762 49.0625 34.0513 49.0625 29.0864C49.0625 24.1214 45.0118 20.0966 40.015 20.0966C35.0182 20.0966 30.9675 24.1214 30.9675 29.0864C30.9675 34.0513 35.0182 38.0762 40.015 38.0762Z" stroke="#00BFFD" stroke-width="6.41839" stroke-linecap="round"/>
</svg>
