<svg width="78" height="88" viewBox="0 0 78 88" fill="none" xmlns="http://www.w3.org/2000/svg">
<path d="M74.7794 33.8793V21.6895L48.443 6.36884C43.0595 3.23709 36.4006 3.20881 30.9903 6.29472L4 21.6895C4.17956 28.8532 4.87923 35.0203 6.09901 40.1908C7.3188 45.3613 9.36508 50.391 12.2379 55.28C24.3553 50.3341 33.5221 47.8896 39.7383 47.9466C45.9545 48.0035 55.6228 50.6204 68.7432 55.7974C64.361 62.2553 59.5762 67.6733 54.3885 72.0514C49.2009 76.4294 44.2013 80.1979 39.3897 83.3569L22.2383 71.1482" stroke="#00BFFD" stroke-width="6.41839" stroke-linecap="round"/>
<path d="M40.015 38.0762C45.0118 38.0762 49.0625 34.0513 49.0625 29.0864C49.0625 24.1214 45.0118 20.0966 40.015 20.0966C35.0182 20.0966 30.9675 24.1214 30.9675 29.0864C30.9675 34.0513 35.0182 38.0762 40.015 38.0762Z" stroke="#00BFFD" stroke-width="6.41839" stroke-linecap="round"/>
</svg>
