<svg width="32" height="32" viewBox="0 0 32 32" fill="none" xmlns="http://www.w3.org/2000/svg">
<g filter="url(#filter0_d)">
<rect x="4" y="2" width="24" height="24" rx="12" fill="#334A64"/>
<path fill-rule="evenodd" clip-rule="evenodd" d="M11.0439 8.28955L10.2896 9.0438L12.4576 11.2117C12.2556 11.3791 12.0557 11.5588 11.8581 11.75C11.4158 12.1777 11.0157 12.6342 10.6635 13.091C10.451 13.3667 10.3001 13.5835 10.2175 13.7127L10.0337 14L10.2175 14.2874C10.3001 14.4166 10.451 14.6334 10.6635 14.909C11.0157 15.3658 11.4158 15.8224 11.8581 16.2501C13.1544 17.5037 14.5454 18.2667 16.0001 18.2667C16.9179 18.2667 17.8104 17.963 18.6697 17.4239L20.9563 19.7105L21.7106 18.9562L11.0439 8.28955ZM17.8906 16.6447L17.0838 15.838C16.7662 16.0256 16.3957 16.1333 16.0001 16.1333C14.8219 16.1333 13.8668 15.1782 13.8668 14C13.8668 13.6044 13.9745 13.2339 14.1621 12.9163L13.216 11.9701C13.0094 12.1367 12.8037 12.3193 12.5996 12.5168C12.1974 12.9057 11.8307 13.3241 11.5082 13.7424C11.4386 13.8327 11.3742 13.9189 11.3154 14C11.3742 14.0812 11.4386 14.1674 11.5082 14.2577C11.8307 14.6759 12.1974 15.0943 12.5996 15.4833C13.7161 16.563 14.8774 17.2 16.0001 17.2C16.6231 17.2 17.258 17.0039 17.8906 16.6447ZM14.9696 13.7237C14.946 13.8118 14.9334 13.9045 14.9334 14C14.9334 14.5891 15.411 15.0667 16.0001 15.0667C16.0957 15.0667 16.1883 15.0541 16.2764 15.0305L14.9696 13.7237ZM20.3191 16.0752L19.5648 15.3209C19.903 14.979 20.2139 14.6183 20.492 14.2577C20.5616 14.1674 20.626 14.0812 20.6848 14C20.626 13.9189 20.5616 13.8327 20.492 13.7424C20.1695 13.3241 19.8029 12.9057 19.4006 12.5168C18.2841 11.437 17.1228 10.8 16.0001 10.8C15.7215 10.8 15.4406 10.8392 15.1586 10.9147L14.3148 10.071C14.8655 9.85143 15.4279 9.73337 16.0001 9.73337C17.4548 9.73337 18.8458 10.4964 20.1421 11.75C20.5844 12.1777 20.9845 12.6342 21.3367 13.091C21.5492 13.3667 21.7001 13.5835 21.7827 13.7127L21.9665 14L21.7827 14.2874C21.7001 14.4166 21.5492 14.6334 21.3367 14.909C21.0321 15.3041 20.6916 15.699 20.3191 16.0752Z" fill="white"/>
</g>
<defs>
<filter id="filter0_d" x="0" y="0" width="32" height="32" filterUnits="userSpaceOnUse" color-interpolation-filters="sRGB">
<feFlood flood-opacity="0" result="BackgroundImageFix"/>
<feColorMatrix in="SourceAlpha" type="matrix" values="0 0 0 0 0 0 0 0 0 0 0 0 0 0 0 0 0 0 127 0"/>
<feOffset dy="2"/>
<feGaussianBlur stdDeviation="2"/>
<feColorMatrix type="matrix" values="0 0 0 0 0.0471181 0 0 0 0 0.0964761 0 0 0 0 0.191667 0 0 0 1 0"/>
<feBlend mode="normal" in2="BackgroundImageFix" result="effect1_dropShadow"/>
<feBlend mode="normal" in="SourceGraphic" in2="effect1_dropShadow" result="shape"/>
</filter>
</defs>
</svg>
