<svg fill="none" height="708" viewBox="0 0 645 708" width="645" xmlns="http://www.w3.org/2000/svg"><path d="m458.286 186.151c.299.198.638.436 1.007.717 1.346 1.027 3.099 2.639 4.836 5.027 3.492 4.801 6.829 12.61 6.829 24.83v.076l-.006.076c-1.138 14.963-3.489 24.765-6.554 31.429-3.103 6.745-6.915 10.223-10.774 12.555-1.628.984-3.262 1.761-4.749 2.468-.225.107-.447.213-.665.317-1.696.812-3.175 1.564-4.494 2.536-2.498 1.84-4.658 4.638-5.8 10.73v.001l-1.966-.368c-6.408 34.248-17.284 46.464-25.84 56.074-4.235 4.757-7.902 8.875-10.178 14.711zm0 0c.011-.059.022-.12.034-.183.184-1.014.451-2.491.779-4.348.655-3.714 1.556-8.946 2.537-15.022 1.96-12.143 4.248-27.692 5.538-41.235v-.001c1.637-17.265-3.385-47.8846-24.224-74.2207-20.92-26.437-57.614-48.35553-118.916-48.35553-.298 0-.698.01218-1.038.02257-.192.00587-.366.01118-.492.01338-.136-.00262-.304-.00781-.487-.01344-.339-.01048-.729-.02251-1.057-.02251-61.301 0-97.994 21.91853-118.912 48.35553-20.839 26.3361-25.861 56.9557-24.226 74.2207v.001c1.289 13.543 3.577 29.092 5.539 41.236.981 6.076 1.882 11.307 2.538 15.021.328 1.857.595 3.335.78 4.349.011.062.022.123.033.182-.299.198-.637.435-1.006.717-1.346 1.027-3.099 2.638-4.836 5.027-3.492 4.8-6.829 12.609-6.829 24.83v.076l.006.076c1.139 14.963 3.491 24.765 6.557 31.429 3.103 6.745 6.915 10.222 10.775 12.555 1.626.983 3.26 1.76 4.746 2.467.226.107.448.213.667.317 1.695.813 3.174 1.565 4.493 2.536 2.497 1.84 4.657 4.638 5.797 10.732 4.842 25.871 12.245 39.459 19.405 48.829 2.391 3.129 4.792 5.826 6.978 8.281 1.023 1.149 1.998 2.245 2.904 3.308 2.892 3.393 5.239 6.622 6.838 10.725 1.435 3.69 2.311 8.185 2.311 14.279 0 28.139-6.875 48.5-24.345 65.776-17.609 17.414-46.133 31.855-89.888 47.637l.61 1.691-.61-1.691c-44.0119 15.875-76.032 31.947-97.0907 46.883-10.5281 7.467-18.3802 14.695-23.6179 21.529-5.22792 6.821-7.95787 13.393-7.95787 19.5v.13.133.134.137.139.142.144.145.149.15.152.155.157.159.161.163.166.168.169.172.174.176.178.18.182.185.186.188.191.192.194.197.198.2.203.204.206.208.21.212.214.215.218.219.221.224.225.226.229.23.233.234.235.238.239.241.243.245.246.248.249.252.253.254.257.258.259.262.263.264.266.268.269.271.272.274.276.277.278.28.282.283.284.286.288.289.29.292.293.295.296.297.299.3.302.302.305.305.307.308.31.31.312.314.314.316.317.318.32.321.321.324.324.325.327.328.329.33.331.332.334.334.336.336.338.339.339.341.342.343.344.345.345.347.348.349.349.351.352.352.353.355.355.356.356.358.359.359.36.361.362.363.363.364.365.366.366.367.368.369.369.37.371.371.372.373.373.374.375.375.376.376.377.378.378.378.38.379.381.38.382.381.383.382.384.383.384.385.385.385.386.386.387.387.387.388.388.388.389.389.389.39.389.391.39.391.391.391.391.392.391.392.393.392.392.393.393.393.393.393.394.393.393.394.394.393.394.394.394.393.394.394.394.394.393.394.394.393.394.393.394.393.393.393.393.393.392.393.392.392.392.392.391.391.391.391.391.39.39.389.39.389.389.388.388.388.388.387.386.387.386.385.385.385.384.384.384.383.382.382.381.381.381.38.379.379.378.378.377.377.376.375.375.374.374.373.372.372.371.37.37.369.368.367.367.366.365.365.363.363.362.362.36.36.359.358.357.356.356.354.354.353.352.351.35.349.348.347.346.346.344.343.342.342.34.339.338.337.336.335.334.333.331.331.329.328.327.326.325.324.322.321.32.319.318.316.315.314.312.312.31.308.308.306.304.304.302.3.3.298.296.295.294.292.291.29.288.286.286.283.282.281.279.278.276.274.273.272.27.268.267.265.263.262.261.258.257.256.253.252.251.248.247.246.243.242.24.238.237.234.233.231.23.227.226.224.222.22.218.217.214.213.21.209.207.205.203.201.199.198.195.193.191.189.187.185.183.181.179.177.175.172.171.168.167.164.162.16.158.155.154.151.149.147.144.142.14.138.136.133.131.129.126.124.122.12.117.114.113.11.107.106.103.1.098.096.093.09.088.086.084.08.079.075.074.07.068.066.063.061.057.056.053.05.047.045.042.04.037.034.031.029.026.024.02.018.016.012.01.007.004c0 .001 0 .002 2 .002h-2v2h2 317.66247.438 317.662 2v-2z" fill="#091225" stroke="#354669" stroke-width="4"/></svg>