<svg width="114" height="170" viewBox="0 0 114 170" fill="none" xmlns="http://www.w3.org/2000/svg">
<g clip-path="url(#clip0)">
<path d="M59.5381 169.016L97.5361 134.507C98.3416 133.771 98.7976 132.743 98.7976 131.654V108.648C98.7976 107.137 97.9161 105.765 96.5481 105.143C95.1726 104.53 93.5691 104.783 92.4596 105.795L56.9999 137.996L21.5478 105.795C20.4306 104.783 18.8271 104.522 17.4592 105.143C16.0837 105.765 15.2021 107.137 15.2021 108.648V131.654C15.2021 132.743 15.6657 133.771 16.4561 134.507L54.454 169.016C55.8979 170.328 58.1018 170.328 59.5381 169.016Z" fill="white" fill-opacity="0.32"/>
<path d="M59.5381 119.17L97.5361 84.6601C98.3416 83.9239 98.7976 82.8963 98.7976 81.8074V58.8011C98.7976 57.2903 97.9161 55.9176 96.5481 55.2965C95.1726 54.683 93.5691 54.936 92.4596 55.9483L56.9999 88.1494L21.5478 55.9483C20.4306 54.936 18.8271 54.6753 17.4592 55.2965C16.0837 55.9176 15.2021 57.2903 15.2021 58.8011V81.8074C15.2021 82.8963 15.6657 83.9239 16.4561 84.6601L54.454 119.17C55.8979 120.481 58.1018 120.481 59.5381 119.17Z" fill="white" fill-opacity="0.14"/>
</g>
<path d="M59.5381 64.2071L97.5361 29.6977C98.3416 28.9615 98.7976 27.9339 98.7976 26.845V3.83869C98.7976 2.32795 97.9161 0.955238 96.5481 0.334069C95.1726 -0.279432 93.5691 -0.0263631 92.4596 0.985913L56.9999 33.187L21.5478 0.985913C20.4306 -0.0263631 18.8271 -0.287101 17.4592 0.334069C16.0837 0.955238 15.2021 2.32795 15.2021 3.83869V26.845C15.2021 27.9339 15.6657 28.9615 16.4561 29.6977L54.454 64.2071C55.8979 65.5185 58.1018 65.5185 59.5381 64.2071Z" fill="white" fill-opacity="0.08"/>
<defs>
<clipPath id="clip0">
<rect width="115.038" height="114" fill="white" transform="translate(114 54.9624) rotate(90)"/>
</clipPath>
</defs>
</svg>
