<svg width="244" height="244" viewBox="0 0 244 244" fill="none" xmlns="http://www.w3.org/2000/svg">
<path d="M23.18 14.64H14.64V23.18H23.18V14.64Z" fill="#495876"/>
<path d="M31.7201 14.64H23.1801V23.18H31.7201V14.64Z" fill="#495876"/>
<path d="M40.26 14.64H31.72V23.18H40.26V14.64Z" fill="#495876"/>
<path d="M48.8 14.64H40.26V23.18H48.8V14.64Z" fill="#495876"/>
<path d="M57.34 14.64H48.8V23.18H57.34V14.64Z" fill="#495876"/>
<path d="M65.88 14.64H57.34V23.18H65.88V14.64Z" fill="#495876"/>
<path d="M74.42 14.64H65.88V23.18H74.42V14.64Z" fill="#495876"/>
<path d="M91.5 14.64H82.96V23.18H91.5V14.64Z" fill="#495876"/>
<path d="M100.04 14.64H91.5V23.18H100.04V14.64Z" fill="#495876"/>
<path d="M134.2 14.64H125.66V23.18H134.2V14.64Z" fill="#495876"/>
<path d="M176.9 14.64H168.36V23.18H176.9V14.64Z" fill="#495876"/>
<path d="M185.44 14.64H176.9V23.18H185.44V14.64Z" fill="#495876"/>
<path d="M193.98 14.64H185.44V23.18H193.98V14.64Z" fill="#495876"/>
<path d="M202.52 14.64H193.98V23.18H202.52V14.64Z" fill="#495876"/>
<path d="M211.06 14.64H202.52V23.18H211.06V14.64Z" fill="#495876"/>
<path d="M219.6 14.64H211.06V23.18H219.6V14.64Z" fill="#495876"/>
<path d="M228.14 14.64H219.6V23.18H228.14V14.64Z" fill="#495876"/>
<path d="M23.18 23.1801H14.64V31.7201H23.18V23.1801Z" fill="#495876"/>
<path d="M74.42 23.1801H65.88V31.7201H74.42V23.1801Z" fill="#495876"/>
<path d="M134.2 23.1801H125.66V31.7201H134.2V23.1801Z" fill="#495876"/>
<path d="M159.82 23.1801H151.28V31.7201H159.82V23.1801Z" fill="#495876"/>
<path d="M176.9 23.1801H168.36V31.7201H176.9V23.1801Z" fill="#495876"/>
<path d="M228.14 23.1801H219.6V31.7201H228.14V23.1801Z" fill="#495876"/>
<path d="M23.18 31.72H14.64V40.26H23.18V31.72Z" fill="#495876"/>
<path d="M40.26 31.72H31.72V40.26H40.26V31.72Z" fill="#495876"/>
<path d="M48.8 31.72H40.26V40.26H48.8V31.72Z" fill="#495876"/>
<path d="M57.34 31.72H48.8V40.26H57.34V31.72Z" fill="#495876"/>
<path d="M74.42 31.72H65.88V40.26H74.42V31.72Z" fill="#495876"/>
<path d="M91.5 31.72H82.96V40.26H91.5V31.72Z" fill="#495876"/>
<path d="M117.12 31.72H108.58V40.26H117.12V31.72Z" fill="#495876"/>
<path d="M125.66 31.72H117.12V40.26H125.66V31.72Z" fill="#495876"/>
<path d="M134.2 31.72H125.66V40.26H134.2V31.72Z" fill="#495876"/>
<path d="M176.9 31.72H168.36V40.26H176.9V31.72Z" fill="#495876"/>
<path d="M193.98 31.72H185.44V40.26H193.98V31.72Z" fill="#495876"/>
<path d="M202.52 31.72H193.98V40.26H202.52V31.72Z" fill="#495876"/>
<path d="M211.06 31.72H202.52V40.26H211.06V31.72Z" fill="#495876"/>
<path d="M228.14 31.72H219.6V40.26H228.14V31.72Z" fill="#495876"/>
<path d="M23.18 40.26H14.64V48.8H23.18V40.26Z" fill="#495876"/>
<path d="M40.26 40.26H31.72V48.8H40.26V40.26Z" fill="#495876"/>
<path d="M48.8 40.26H40.26V48.8H48.8V40.26Z" fill="#495876"/>
<path d="M57.34 40.26H48.8V48.8H57.34V40.26Z" fill="#495876"/>
<path d="M74.42 40.26H65.88V48.8H74.42V40.26Z" fill="#495876"/>
<path d="M91.5 40.26H82.96V48.8H91.5V40.26Z" fill="#495876"/>
<path d="M100.04 40.26H91.5V48.8H100.04V40.26Z" fill="#495876"/>
<path d="M117.12 40.26H108.58V48.8H117.12V40.26Z" fill="#495876"/>
<path d="M125.66 40.26H117.12V48.8H125.66V40.26Z" fill="#495876"/>
<path d="M134.2 40.26H125.66V48.8H134.2V40.26Z" fill="#495876"/>
<path d="M142.74 40.26H134.2V48.8H142.74V40.26Z" fill="#495876"/>
<path d="M151.28 40.26H142.74V48.8H151.28V40.26Z" fill="#495876"/>
<path d="M176.9 40.26H168.36V48.8H176.9V40.26Z" fill="#495876"/>
<path d="M193.98 40.26H185.44V48.8H193.98V40.26Z" fill="#495876"/>
<path d="M202.52 40.26H193.98V48.8H202.52V40.26Z" fill="#495876"/>
<path d="M211.06 40.26H202.52V48.8H211.06V40.26Z" fill="#495876"/>
<path d="M228.14 40.26H219.6V48.8H228.14V40.26Z" fill="#495876"/>
<path d="M23.18 48.8H14.64V57.34H23.18V48.8Z" fill="#495876"/>
<path d="M40.26 48.8H31.72V57.34H40.26V48.8Z" fill="#495876"/>
<path d="M48.8 48.8H40.26V57.34H48.8V48.8Z" fill="#495876"/>
<path d="M57.34 48.8H48.8V57.34H57.34V48.8Z" fill="#495876"/>
<path d="M74.42 48.8H65.88V57.34H74.42V48.8Z" fill="#495876"/>
<path d="M91.5 48.8H82.96V57.34H91.5V48.8Z" fill="#495876"/>
<path d="M100.04 48.8H91.5V57.34H100.04V48.8Z" fill="#495876"/>
<path d="M108.58 48.8H100.04V57.34H108.58V48.8Z" fill="#495876"/>
<path d="M117.12 48.8H108.58V57.34H117.12V48.8Z" fill="#495876"/>
<path d="M134.2 48.8H125.66V57.34H134.2V48.8Z" fill="#495876"/>
<path d="M142.74 48.8H134.2V57.34H142.74V48.8Z" fill="#495876"/>
<path d="M151.28 48.8H142.74V57.34H151.28V48.8Z" fill="#495876"/>
<path d="M159.82 48.8H151.28V57.34H159.82V48.8Z" fill="#495876"/>
<path d="M176.9 48.8H168.36V57.34H176.9V48.8Z" fill="#495876"/>
<path d="M193.98 48.8H185.44V57.34H193.98V48.8Z" fill="#495876"/>
<path d="M202.52 48.8H193.98V57.34H202.52V48.8Z" fill="#495876"/>
<path d="M211.06 48.8H202.52V57.34H211.06V48.8Z" fill="#495876"/>
<path d="M228.14 48.8H219.6V57.34H228.14V48.8Z" fill="#495876"/>
<path d="M23.18 57.34H14.64V65.88H23.18V57.34Z" fill="#495876"/>
<path d="M74.42 57.34H65.88V65.88H74.42V57.34Z" fill="#495876"/>
<path d="M100.04 57.34H91.5V65.88H100.04V57.34Z" fill="#495876"/>
<path d="M125.66 57.34H117.12V65.88H125.66V57.34Z" fill="#495876"/>
<path d="M134.2 57.34H125.66V65.88H134.2V57.34Z" fill="#495876"/>
<path d="M142.74 57.34H134.2V65.88H142.74V57.34Z" fill="#495876"/>
<path d="M176.9 57.34H168.36V65.88H176.9V57.34Z" fill="#495876"/>
<path d="M228.14 57.34H219.6V65.88H228.14V57.34Z" fill="#495876"/>
<path d="M23.18 65.88H14.64V74.42H23.18V65.88Z" fill="#495876"/>
<path d="M31.7201 65.88H23.1801V74.42H31.7201V65.88Z" fill="#495876"/>
<path d="M40.26 65.88H31.72V74.42H40.26V65.88Z" fill="#495876"/>
<path d="M48.8 65.88H40.26V74.42H48.8V65.88Z" fill="#495876"/>
<path d="M57.34 65.88H48.8V74.42H57.34V65.88Z" fill="#495876"/>
<path d="M65.88 65.88H57.34V74.42H65.88V65.88Z" fill="#495876"/>
<path d="M74.42 65.88H65.88V74.42H74.42V65.88Z" fill="#495876"/>
<path d="M91.5 65.88H82.96V74.42H91.5V65.88Z" fill="#495876"/>
<path d="M108.58 65.88H100.04V74.42H108.58V65.88Z" fill="#495876"/>
<path d="M125.66 65.88H117.12V74.42H125.66V65.88Z" fill="#495876"/>
<path d="M142.74 65.88H134.2V74.42H142.74V65.88Z" fill="#495876"/>
<path d="M159.82 65.88H151.28V74.42H159.82V65.88Z" fill="#495876"/>
<path d="M176.9 65.88H168.36V74.42H176.9V65.88Z" fill="#495876"/>
<path d="M185.44 65.88H176.9V74.42H185.44V65.88Z" fill="#495876"/>
<path d="M193.98 65.88H185.44V74.42H193.98V65.88Z" fill="#495876"/>
<path d="M202.52 65.88H193.98V74.42H202.52V65.88Z" fill="#495876"/>
<path d="M211.06 65.88H202.52V74.42H211.06V65.88Z" fill="#495876"/>
<path d="M219.6 65.88H211.06V74.42H219.6V65.88Z" fill="#495876"/>
<path d="M228.14 65.88H219.6V74.42H228.14V65.88Z" fill="#495876"/>
<path d="M100.04 74.42H91.5V82.96H100.04V74.42Z" fill="#495876"/>
<path d="M117.12 74.42H108.58V82.96H117.12V74.42Z" fill="#495876"/>
<path d="M125.66 74.42H117.12V82.96H125.66V74.42Z" fill="#495876"/>
<path d="M142.74 74.42H134.2V82.96H142.74V74.42Z" fill="#495876"/>
<path d="M151.28 74.42H142.74V82.96H151.28V74.42Z" fill="#495876"/>
<path d="M159.82 74.42H151.28V82.96H159.82V74.42Z" fill="#495876"/>
<path d="M23.18 82.96H14.64V91.5H23.18V82.96Z" fill="#495876"/>
<path d="M31.7201 82.96H23.1801V91.5H31.7201V82.96Z" fill="#495876"/>
<path d="M40.26 82.96H31.72V91.5H40.26V82.96Z" fill="#495876"/>
<path d="M48.8 82.96H40.26V91.5H48.8V82.96Z" fill="#495876"/>
<path d="M74.42 82.96H65.88V91.5H74.42V82.96Z" fill="#495876"/>
<path d="M91.5 82.96H82.96V91.5H91.5V82.96Z" fill="#495876"/>
<path d="M142.74 82.96H134.2V91.5H142.74V82.96Z" fill="#495876"/>
<path d="M159.82 82.96H151.28V91.5H159.82V82.96Z" fill="#495876"/>
<path d="M168.36 82.96H159.82V91.5H168.36V82.96Z" fill="#495876"/>
<path d="M193.98 82.96H185.44V91.5H193.98V82.96Z" fill="#495876"/>
<path d="M202.52 82.96H193.98V91.5H202.52V82.96Z" fill="#495876"/>
<path d="M211.06 82.96H202.52V91.5H211.06V82.96Z" fill="#495876"/>
<path d="M228.14 82.96H219.6V91.5H228.14V82.96Z" fill="#495876"/>
<path d="M40.26 91.5H31.72V100.04H40.26V91.5Z" fill="#495876"/>
<path d="M65.88 91.5H57.34V100.04H65.88V91.5Z" fill="#495876"/>
<path d="M100.04 91.5H91.5V100.04H100.04V91.5Z" fill="#495876"/>
<path d="M117.12 91.5H108.58V100.04H117.12V91.5Z" fill="#495876"/>
<path d="M134.2 91.5H125.66V100.04H134.2V91.5Z" fill="#495876"/>
<path d="M159.82 91.5H151.28V100.04H159.82V91.5Z" fill="#495876"/>
<path d="M168.36 91.5H159.82V100.04H168.36V91.5Z" fill="#495876"/>
<path d="M185.44 91.5H176.9V100.04H185.44V91.5Z" fill="#495876"/>
<path d="M219.6 91.5H211.06V100.04H219.6V91.5Z" fill="#495876"/>
<path d="M57.34 100.04H48.8V108.58H57.34V100.04Z" fill="#495876"/>
<path d="M74.42 100.04H65.88V108.58H74.42V100.04Z" fill="#495876"/>
<path d="M82.96 100.04H74.42V108.58H82.96V100.04Z" fill="#495876"/>
<path d="M117.12 100.04H108.58V108.58H117.12V100.04Z" fill="#495876"/>
<path d="M142.74 100.04H134.2V108.58H142.74V100.04Z" fill="#495876"/>
<path d="M159.82 100.04H151.28V108.58H159.82V100.04Z" fill="#495876"/>
<path d="M168.36 100.04H159.82V108.58H168.36V100.04Z" fill="#495876"/>
<path d="M185.44 100.04H176.9V108.58H185.44V100.04Z" fill="#495876"/>
<path d="M193.98 100.04H185.44V108.58H193.98V100.04Z" fill="#495876"/>
<path d="M23.18 108.58H14.64V117.12H23.18V108.58Z" fill="#495876"/>
<path d="M57.34 108.58H48.8V117.12H57.34V108.58Z" fill="#495876"/>
<path d="M125.66 108.58H117.12V117.12H125.66V108.58Z" fill="#495876"/>
<path d="M134.2 108.58H125.66V117.12H134.2V108.58Z" fill="#495876"/>
<path d="M142.74 108.58H134.2V117.12H142.74V108.58Z" fill="#495876"/>
<path d="M159.82 108.58H151.28V117.12H159.82V108.58Z" fill="#495876"/>
<path d="M176.9 108.58H168.36V117.12H176.9V108.58Z" fill="#495876"/>
<path d="M185.44 108.58H176.9V117.12H185.44V108.58Z" fill="#495876"/>
<path d="M202.52 108.58H193.98V117.12H202.52V108.58Z" fill="#495876"/>
<path d="M211.06 108.58H202.52V117.12H211.06V108.58Z" fill="#495876"/>
<path d="M31.7201 117.12H23.1801V125.66H31.7201V117.12Z" fill="#495876"/>
<path d="M48.8 117.12H40.26V125.66H48.8V117.12Z" fill="#495876"/>
<path d="M57.34 117.12H48.8V125.66H57.34V117.12Z" fill="#495876"/>
<path d="M74.42 117.12H65.88V125.66H74.42V117.12Z" fill="#495876"/>
<path d="M82.96 117.12H74.42V125.66H82.96V117.12Z" fill="#495876"/>
<path d="M100.04 117.12H91.5V125.66H100.04V117.12Z" fill="#495876"/>
<path d="M134.2 117.12H125.66V125.66H134.2V117.12Z" fill="#495876"/>
<path d="M142.74 117.12H134.2V125.66H142.74V117.12Z" fill="#495876"/>
<path d="M151.28 117.12H142.74V125.66H151.28V117.12Z" fill="#495876"/>
<path d="M168.36 117.12H159.82V125.66H168.36V117.12Z" fill="#495876"/>
<path d="M176.9 117.12H168.36V125.66H176.9V117.12Z" fill="#495876"/>
<path d="M185.44 117.12H176.9V125.66H185.44V117.12Z" fill="#495876"/>
<path d="M193.98 117.12H185.44V125.66H193.98V117.12Z" fill="#495876"/>
<path d="M211.06 117.12H202.52V125.66H211.06V117.12Z" fill="#495876"/>
<path d="M219.6 117.12H211.06V125.66H219.6V117.12Z" fill="#495876"/>
<path d="M228.14 117.12H219.6V125.66H228.14V117.12Z" fill="#495876"/>
<path d="M31.7201 125.66H23.1801V134.2H31.7201V125.66Z" fill="#495876"/>
<path d="M40.26 125.66H31.72V134.2H40.26V125.66Z" fill="#495876"/>
<path d="M48.8 125.66H40.26V134.2H48.8V125.66Z" fill="#495876"/>
<path d="M65.88 125.66H57.34V134.2H65.88V125.66Z" fill="#495876"/>
<path d="M82.96 125.66H74.42V134.2H82.96V125.66Z" fill="#495876"/>
<path d="M91.5 125.66H82.96V134.2H91.5V125.66Z" fill="#495876"/>
<path d="M100.04 125.66H91.5V134.2H100.04V125.66Z" fill="#495876"/>
<path d="M108.58 125.66H100.04V134.2H108.58V125.66Z" fill="#495876"/>
<path d="M134.2 125.66H125.66V134.2H134.2V125.66Z" fill="#495876"/>
<path d="M142.74 125.66H134.2V134.2H142.74V125.66Z" fill="#495876"/>
<path d="M151.28 125.66H142.74V134.2H151.28V125.66Z" fill="#495876"/>
<path d="M159.82 125.66H151.28V134.2H159.82V125.66Z" fill="#495876"/>
<path d="M168.36 125.66H159.82V134.2H168.36V125.66Z" fill="#495876"/>
<path d="M176.9 125.66H168.36V134.2H176.9V125.66Z" fill="#495876"/>
<path d="M185.44 125.66H176.9V134.2H185.44V125.66Z" fill="#495876"/>
<path d="M193.98 125.66H185.44V134.2H193.98V125.66Z" fill="#495876"/>
<path d="M228.14 125.66H219.6V134.2H228.14V125.66Z" fill="#495876"/>
<path d="M31.7201 134.2H23.1801V142.74H31.7201V134.2Z" fill="#495876"/>
<path d="M40.26 134.2H31.72V142.74H40.26V134.2Z" fill="#495876"/>
<path d="M74.42 134.2H65.88V142.74H74.42V134.2Z" fill="#495876"/>
<path d="M91.5 134.2H82.96V142.74H91.5V134.2Z" fill="#495876"/>
<path d="M100.04 134.2H91.5V142.74H100.04V134.2Z" fill="#495876"/>
<path d="M108.58 134.2H100.04V142.74H108.58V134.2Z" fill="#495876"/>
<path d="M125.66 134.2H117.12V142.74H125.66V134.2Z" fill="#495876"/>
<path d="M142.74 134.2H134.2V142.74H142.74V134.2Z" fill="#495876"/>
<path d="M159.82 134.2H151.28V142.74H159.82V134.2Z" fill="#495876"/>
<path d="M168.36 134.2H159.82V142.74H168.36V134.2Z" fill="#495876"/>
<path d="M193.98 134.2H185.44V142.74H193.98V134.2Z" fill="#495876"/>
<path d="M211.06 134.2H202.52V142.74H211.06V134.2Z" fill="#495876"/>
<path d="M219.6 134.2H211.06V142.74H219.6V134.2Z" fill="#495876"/>
<path d="M23.18 142.74H14.64V151.28H23.18V142.74Z" fill="#495876"/>
<path d="M40.26 142.74H31.72V151.28H40.26V142.74Z" fill="#495876"/>
<path d="M57.34 142.74H48.8V151.28H57.34V142.74Z" fill="#495876"/>
<path d="M65.88 142.74H57.34V151.28H65.88V142.74Z" fill="#495876"/>
<path d="M100.04 142.74H91.5V151.28H100.04V142.74Z" fill="#495876"/>
<path d="M151.28 142.74H142.74V151.28H151.28V142.74Z" fill="#495876"/>
<path d="M168.36 142.74H159.82V151.28H168.36V142.74Z" fill="#495876"/>
<path d="M185.44 142.74H176.9V151.28H185.44V142.74Z" fill="#495876"/>
<path d="M193.98 142.74H185.44V151.28H193.98V142.74Z" fill="#495876"/>
<path d="M228.14 142.74H219.6V151.28H228.14V142.74Z" fill="#495876"/>
<path d="M48.8 151.28H40.26V159.82H48.8V151.28Z" fill="#495876"/>
<path d="M65.88 151.28H57.34V159.82H65.88V151.28Z" fill="#495876"/>
<path d="M74.42 151.28H65.88V159.82H74.42V151.28Z" fill="#495876"/>
<path d="M100.04 151.28H91.5V159.82H100.04V151.28Z" fill="#495876"/>
<path d="M108.58 151.28H100.04V159.82H108.58V151.28Z" fill="#495876"/>
<path d="M117.12 151.28H108.58V159.82H117.12V151.28Z" fill="#495876"/>
<path d="M125.66 151.28H117.12V159.82H125.66V151.28Z" fill="#495876"/>
<path d="M134.2 151.28H125.66V159.82H134.2V151.28Z" fill="#495876"/>
<path d="M159.82 151.28H151.28V159.82H159.82V151.28Z" fill="#495876"/>
<path d="M168.36 151.28H159.82V159.82H168.36V151.28Z" fill="#495876"/>
<path d="M176.9 151.28H168.36V159.82H176.9V151.28Z" fill="#495876"/>
<path d="M185.44 151.28H176.9V159.82H185.44V151.28Z" fill="#495876"/>
<path d="M193.98 151.28H185.44V159.82H193.98V151.28Z" fill="#495876"/>
<path d="M202.52 151.28H193.98V159.82H202.52V151.28Z" fill="#495876"/>
<path d="M211.06 151.28H202.52V159.82H211.06V151.28Z" fill="#495876"/>
<path d="M219.6 151.28H211.06V159.82H219.6V151.28Z" fill="#495876"/>
<path d="M228.14 151.28H219.6V159.82H228.14V151.28Z" fill="#495876"/>
<path d="M91.5 159.82H82.96V168.36H91.5V159.82Z" fill="#495876"/>
<path d="M100.04 159.82H91.5V168.36H100.04V159.82Z" fill="#495876"/>
<path d="M125.66 159.82H117.12V168.36H125.66V159.82Z" fill="#495876"/>
<path d="M151.28 159.82H142.74V168.36H151.28V159.82Z" fill="#495876"/>
<path d="M159.82 159.82H151.28V168.36H159.82V159.82Z" fill="#495876"/>
<path d="M193.98 159.82H185.44V168.36H193.98V159.82Z" fill="#495876"/>
<path d="M211.06 159.82H202.52V168.36H211.06V159.82Z" fill="#495876"/>
<path d="M228.14 159.82H219.6V168.36H228.14V159.82Z" fill="#495876"/>
<path d="M23.18 168.36H14.64V176.9H23.18V168.36Z" fill="#495876"/>
<path d="M31.7201 168.36H23.1801V176.9H31.7201V168.36Z" fill="#495876"/>
<path d="M40.26 168.36H31.72V176.9H40.26V168.36Z" fill="#495876"/>
<path d="M48.8 168.36H40.26V176.9H48.8V168.36Z" fill="#495876"/>
<path d="M57.34 168.36H48.8V176.9H57.34V168.36Z" fill="#495876"/>
<path d="M65.88 168.36H57.34V176.9H65.88V168.36Z" fill="#495876"/>
<path d="M74.42 168.36H65.88V176.9H74.42V168.36Z" fill="#495876"/>
<path d="M108.58 168.36H100.04V176.9H108.58V168.36Z" fill="#495876"/>
<path d="M134.2 168.36H125.66V176.9H134.2V168.36Z" fill="#495876"/>
<path d="M159.82 168.36H151.28V176.9H159.82V168.36Z" fill="#495876"/>
<path d="M176.9 168.36H168.36V176.9H176.9V168.36Z" fill="#495876"/>
<path d="M193.98 168.36H185.44V176.9H193.98V168.36Z" fill="#495876"/>
<path d="M211.06 168.36H202.52V176.9H211.06V168.36Z" fill="#495876"/>
<path d="M219.6 168.36H211.06V176.9H219.6V168.36Z" fill="#495876"/>
<path d="M228.14 168.36H219.6V176.9H228.14V168.36Z" fill="#495876"/>
<path d="M23.18 176.9H14.64V185.44H23.18V176.9Z" fill="#495876"/>
<path d="M74.42 176.9H65.88V185.44H74.42V176.9Z" fill="#495876"/>
<path d="M117.12 176.9H108.58V185.44H117.12V176.9Z" fill="#495876"/>
<path d="M151.28 176.9H142.74V185.44H151.28V176.9Z" fill="#495876"/>
<path d="M159.82 176.9H151.28V185.44H159.82V176.9Z" fill="#495876"/>
<path d="M193.98 176.9H185.44V185.44H193.98V176.9Z" fill="#495876"/>
<path d="M219.6 176.9H211.06V185.44H219.6V176.9Z" fill="#495876"/>
<path d="M23.18 185.44H14.64V193.98H23.18V185.44Z" fill="#495876"/>
<path d="M40.26 185.44H31.72V193.98H40.26V185.44Z" fill="#495876"/>
<path d="M48.8 185.44H40.26V193.98H48.8V185.44Z" fill="#495876"/>
<path d="M57.34 185.44H48.8V193.98H57.34V185.44Z" fill="#495876"/>
<path d="M74.42 185.44H65.88V193.98H74.42V185.44Z" fill="#495876"/>
<path d="M100.04 185.44H91.5V193.98H100.04V185.44Z" fill="#495876"/>
<path d="M108.58 185.44H100.04V193.98H108.58V185.44Z" fill="#495876"/>
<path d="M125.66 185.44H117.12V193.98H125.66V185.44Z" fill="#495876"/>
<path d="M159.82 185.44H151.28V193.98H159.82V185.44Z" fill="#495876"/>
<path d="M168.36 185.44H159.82V193.98H168.36V185.44Z" fill="#495876"/>
<path d="M176.9 185.44H168.36V193.98H176.9V185.44Z" fill="#495876"/>
<path d="M185.44 185.44H176.9V193.98H185.44V185.44Z" fill="#495876"/>
<path d="M193.98 185.44H185.44V193.98H193.98V185.44Z" fill="#495876"/>
<path d="M202.52 185.44H193.98V193.98H202.52V185.44Z" fill="#495876"/>
<path d="M219.6 185.44H211.06V193.98H219.6V185.44Z" fill="#495876"/>
<path d="M228.14 185.44H219.6V193.98H228.14V185.44Z" fill="#495876"/>
<path d="M23.18 193.98H14.64V202.52H23.18V193.98Z" fill="#495876"/>
<path d="M40.26 193.98H31.72V202.52H40.26V193.98Z" fill="#495876"/>
<path d="M48.8 193.98H40.26V202.52H48.8V193.98Z" fill="#495876"/>
<path d="M57.34 193.98H48.8V202.52H57.34V193.98Z" fill="#495876"/>
<path d="M74.42 193.98H65.88V202.52H74.42V193.98Z" fill="#495876"/>
<path d="M91.5 193.98H82.96V202.52H91.5V193.98Z" fill="#495876"/>
<path d="M100.04 193.98H91.5V202.52H100.04V193.98Z" fill="#495876"/>
<path d="M117.12 193.98H108.58V202.52H117.12V193.98Z" fill="#495876"/>
<path d="M125.66 193.98H117.12V202.52H125.66V193.98Z" fill="#495876"/>
<path d="M134.2 193.98H125.66V202.52H134.2V193.98Z" fill="#495876"/>
<path d="M151.28 193.98H142.74V202.52H151.28V193.98Z" fill="#495876"/>
<path d="M159.82 193.98H151.28V202.52H159.82V193.98Z" fill="#495876"/>
<path d="M168.36 193.98H159.82V202.52H168.36V193.98Z" fill="#495876"/>
<path d="M176.9 193.98H168.36V202.52H176.9V193.98Z" fill="#495876"/>
<path d="M193.98 193.98H185.44V202.52H193.98V193.98Z" fill="#495876"/>
<path d="M202.52 193.98H193.98V202.52H202.52V193.98Z" fill="#495876"/>
<path d="M211.06 193.98H202.52V202.52H211.06V193.98Z" fill="#495876"/>
<path d="M219.6 193.98H211.06V202.52H219.6V193.98Z" fill="#495876"/>
<path d="M228.14 193.98H219.6V202.52H228.14V193.98Z" fill="#495876"/>
<path d="M23.18 202.52H14.64V211.06H23.18V202.52Z" fill="#495876"/>
<path d="M40.26 202.52H31.72V211.06H40.26V202.52Z" fill="#495876"/>
<path d="M48.8 202.52H40.26V211.06H48.8V202.52Z" fill="#495876"/>
<path d="M57.34 202.52H48.8V211.06H57.34V202.52Z" fill="#495876"/>
<path d="M74.42 202.52H65.88V211.06H74.42V202.52Z" fill="#495876"/>
<path d="M91.5 202.52H82.96V211.06H91.5V202.52Z" fill="#495876"/>
<path d="M108.58 202.52H100.04V211.06H108.58V202.52Z" fill="#495876"/>
<path d="M117.12 202.52H108.58V211.06H117.12V202.52Z" fill="#495876"/>
<path d="M134.2 202.52H125.66V211.06H134.2V202.52Z" fill="#495876"/>
<path d="M151.28 202.52H142.74V211.06H151.28V202.52Z" fill="#495876"/>
<path d="M159.82 202.52H151.28V211.06H159.82V202.52Z" fill="#495876"/>
<path d="M168.36 202.52H159.82V211.06H168.36V202.52Z" fill="#495876"/>
<path d="M176.9 202.52H168.36V211.06H176.9V202.52Z" fill="#495876"/>
<path d="M193.98 202.52H185.44V211.06H193.98V202.52Z" fill="#495876"/>
<path d="M211.06 202.52H202.52V211.06H211.06V202.52Z" fill="#495876"/>
<path d="M219.6 202.52H211.06V211.06H219.6V202.52Z" fill="#495876"/>
<path d="M23.18 211.06H14.64V219.6H23.18V211.06Z" fill="#495876"/>
<path d="M74.42 211.06H65.88V219.6H74.42V211.06Z" fill="#495876"/>
<path d="M91.5 211.06H82.96V219.6H91.5V211.06Z" fill="#495876"/>
<path d="M117.12 211.06H108.58V219.6H117.12V211.06Z" fill="#495876"/>
<path d="M134.2 211.06H125.66V219.6H134.2V211.06Z" fill="#495876"/>
<path d="M142.74 211.06H134.2V219.6H142.74V211.06Z" fill="#495876"/>
<path d="M168.36 211.06H159.82V219.6H168.36V211.06Z" fill="#495876"/>
<path d="M176.9 211.06H168.36V219.6H176.9V211.06Z" fill="#495876"/>
<path d="M193.98 211.06H185.44V219.6H193.98V211.06Z" fill="#495876"/>
<path d="M211.06 211.06H202.52V219.6H211.06V211.06Z" fill="#495876"/>
<path d="M23.18 219.6H14.64V228.14H23.18V219.6Z" fill="#495876"/>
<path d="M31.7201 219.6H23.1801V228.14H31.7201V219.6Z" fill="#495876"/>
<path d="M40.26 219.6H31.72V228.14H40.26V219.6Z" fill="#495876"/>
<path d="M48.8 219.6H40.26V228.14H48.8V219.6Z" fill="#495876"/>
<path d="M57.34 219.6H48.8V228.14H57.34V219.6Z" fill="#495876"/>
<path d="M65.88 219.6H57.34V228.14H65.88V219.6Z" fill="#495876"/>
<path d="M74.42 219.6H65.88V228.14H74.42V219.6Z" fill="#495876"/>
<path d="M91.5 219.6H82.96V228.14H91.5V219.6Z" fill="#495876"/>
<path d="M134.2 219.6H125.66V228.14H134.2V219.6Z" fill="#495876"/>
<path d="M142.74 219.6H134.2V228.14H142.74V219.6Z" fill="#495876"/>
<path d="M151.28 219.6H142.74V228.14H151.28V219.6Z" fill="#495876"/>
<path d="M168.36 219.6H159.82V228.14H168.36V219.6Z" fill="#495876"/>
<path d="M185.44 219.6H176.9V228.14H185.44V219.6Z" fill="#495876"/>
<path d="M193.98 219.6H185.44V228.14H193.98V219.6Z" fill="#495876"/>
<path d="M202.52 219.6H193.98V228.14H202.52V219.6Z" fill="#495876"/>
<path d="M211.06 219.6H202.52V228.14H211.06V219.6Z" fill="#495876"/>
<path d="M219.6 219.6H211.06V228.14H219.6V219.6Z" fill="#495876"/>
<path d="M228.14 219.6H219.6V228.14H228.14V219.6Z" fill="#495876"/>
</svg>
